{
    "key": 60,
    "tempo": 0.731,
    "notes": [
        {
            "note": "60",
            "velocity": 121,
            "pitch": 60,
            "type": "Note on",
            "startTime": 0,
            "duration": 0.212,
            "endTime": 0.212
        },
        {
            "note": "60",
            "velocity": 121,
            "pitch": 60,
            "type": "Note on",
            "startTime": 0.731,
            "duration": 0.11499999999999999,
            "endTime": 0.846
        },
        {
            "note": "67",
            "velocity": 127,
            "pitch": 67,
            "type": "Note on",
            "startTime": 1.442,
            "duration": 0.19799999999999995,
            "endTime": 1.64
        },
        {
            "note": "69",
            "velocity": 122,
            "pitch": 69,
            "type": "Note on",
            "startTime": 1.447,
            "duration": 0.06499999999999995,
            "endTime": 1.512
        },
        {
            "note": "67",
            "velocity": 124,
            "pitch": 67,
            "type": "Note on",
            "startTime": 2.115,
            "duration": 0.1419999999999999,
            "endTime": 2.257
        },
        {
            "note": "69",
            "velocity": 122,
            "pitch": 69,
            "type": "Note on",
            "startTime": 2.67,
            "duration": 0.14500000000000002,
            "endTime": 2.815
        },
        {
            "note": "69",
            "velocity": 122,
            "pitch": 69,
            "type": "Note on",
            "startTime": 3.318,
            "duration": 0.08800000000000008,
            "endTime": 3.406
        },
        {
            "note": "67",
            "velocity": 123,
            "pitch": 67,
            "type": "Note on",
            "startTime": 3.892,
            "duration": 0.8420000000000001,
            "endTime": 4.734
        },
        {
            "note": "65",
            "velocity": 124,
            "pitch": 65,
            "type": "Note on",
            "startTime": 5.219,
            "duration": 0.13999999999999968,
            "endTime": 5.359
        },
        {
            "note": "65",
            "velocity": 123,
            "pitch": 65,
            "type": "Note on",
            "startTime": 5.883,
            "duration": 0.0940000000000003,
            "endTime": 5.977
        },
        {
            "note": "64",
            "velocity": 124,
            "pitch": 64,
            "type": "Note on",
            "startTime": 6.527,
            "duration": 0.1280000000000001,
            "endTime": 6.655
        },
        {
            "note": "64",
            "velocity": 124,
            "pitch": 64,
            "type": "Note on",
            "startTime": 7.157,
            "duration": 0.08699999999999974,
            "endTime": 7.244
        },
        {
            "note": "62",
            "velocity": 124,
            "pitch": 62,
            "type": "Note on",
            "startTime": 7.825,
            "duration": 0.08099999999999952,
            "endTime": 7.906
        },
        {
            "note": "62",
            "velocity": 124,
            "pitch": 62,
            "type": "Note on",
            "startTime": 8.452,
            "duration": 0.0730000000000004,
            "endTime": 8.525
        },
        {
            "note": "60",
            "velocity": 123,
            "pitch": 60,
            "type": "Note on",
            "startTime": 9.108,
            "duration": 0.9290000000000003,
            "endTime": 10.037
        },
        {
            "note": "67",
            "velocity": 117,
            "pitch": 67,
            "type": "Note on",
            "startTime": 10.495,
            "duration": 0.14800000000000146,
            "endTime": 10.643
        },
        {
            "note": "67",
            "velocity": 123,
            "pitch": 67,
            "type": "Note on",
            "startTime": 11.143,
            "duration": 0.10199999999999854,
            "endTime": 11.245
        },
        {
            "note": "65",
            "velocity": 123,
            "pitch": 65,
            "type": "Note on",
            "startTime": 11.787,
            "duration": 0.14599999999999902,
            "endTime": 11.933
        },
        {
            "note": "65",
            "velocity": 123,
            "pitch": 65,
            "type": "Note on",
            "startTime": 12.401,
            "duration": 0.09200000000000053,
            "endTime": 12.493
        },
        {
            "note": "64",
            "velocity": 124,
            "pitch": 64,
            "type": "Note on",
            "startTime": 13.037,
            "duration": 0.08399999999999963,
            "endTime": 13.121
        },
        {
            "note": "64",
            "velocity": 123,
            "pitch": 64,
            "type": "Note on",
            "startTime": 13.662,
            "duration": 0.0909999999999993,
            "endTime": 13.753
        },
        {
            "note": "62",
            "velocity": 124,
            "pitch": 62,
            "type": "Note on",
            "startTime": 14.309,
            "duration": 0.9100000000000001,
            "endTime": 15.219
        },
        {
            "note": "67",
            "velocity": 123,
            "pitch": 67,
            "type": "Note on",
            "startTime": 15.635,
            "duration": 0.15700000000000003,
            "endTime": 15.792
        },
        {
            "note": "67",
            "velocity": 122,
            "pitch": 67,
            "type": "Note on",
            "startTime": 16.27,
            "duration": 0.09799999999999898,
            "endTime": 16.368
        },
        {
            "note": "65",
            "velocity": 123,
            "pitch": 65,
            "type": "Note on",
            "startTime": 16.888,
            "duration": 0.09499999999999886,
            "endTime": 16.983
        },
        {
            "note": "65",
            "velocity": 123,
            "pitch": 65,
            "type": "Note on",
            "startTime": 17.506,
            "duration": 0.09799999999999898,
            "endTime": 17.604
        },
        {
            "note": "64",
            "velocity": 122,
            "pitch": 64,
            "type": "Note on",
            "startTime": 18.159,
            "duration": 0.0920000000000023,
            "endTime": 18.251
        },
        {
            "note": "64",
            "velocity": 122,
            "pitch": 64,
            "type": "Note on",
            "startTime": 18.782,
            "duration": 0.09799999999999898,
            "endTime": 18.88
        },
        {
            "note": "62",
            "velocity": 127,
            "pitch": 62,
            "type": "Note on",
            "startTime": 19.426,
            "duration": 0.8220000000000027,
            "endTime": 20.248
        },
        {
            "note": "60",
            "velocity": 121,
            "pitch": 60,
            "type": "Note on",
            "startTime": 20.688,
            "duration": 0.15399999999999991,
            "endTime": 20.842
        },
        {
            "note": "60",
            "velocity": 117,
            "pitch": 60,
            "type": "Note on",
            "startTime": 21.309,
            "duration": 0.08299999999999841,
            "endTime": 21.392
        },
        {
            "note": "67",
            "velocity": 120,
            "pitch": 67,
            "type": "Note on",
            "startTime": 21.912,
            "duration": 0.13599999999999923,
            "endTime": 22.048
        },
        {
            "note": "67",
            "velocity": 122,
            "pitch": 67,
            "type": "Note on",
            "startTime": 22.569,
            "duration": 0.10000000000000142,
            "endTime": 22.669
        },
        {
            "note": "69",
            "velocity": 124,
            "pitch": 69,
            "type": "Note on",
            "startTime": 23.223,
            "duration": 0.11400000000000077,
            "endTime": 23.337
        },
        {
            "note": "67",
            "velocity": 122,
            "pitch": 67,
            "type": "Note on",
            "startTime": 23.227,
            "duration": 0.09100000000000108,
            "endTime": 23.318
        },
        {
            "note": "69",
            "velocity": 122,
            "pitch": 69,
            "type": "Note on",
            "startTime": 23.879,
            "duration": 0.08399999999999963,
            "endTime": 23.963
        },
        {
            "note": "67",
            "velocity": 124,
            "pitch": 67,
            "type": "Note on",
            "startTime": 24.535,
            "duration": 1.2680000000000007,
            "endTime": 25.803
        },
        {
            "note": "65",
            "velocity": 127,
            "pitch": 65,
            "type": "Note on",
            "startTime": 25.92,
            "duration": 0.11699999999999733,
            "endTime": 26.037
        },
        {
            "note": "65",
            "velocity": 124,
            "pitch": 65,
            "type": "Note on",
            "startTime": 26.549,
            "duration": 0.09299999999999997,
            "endTime": 26.642
        },
        {
            "note": "64",
            "velocity": 124,
            "pitch": 64,
            "type": "Note on",
            "startTime": 27.18,
            "duration": 0.08200000000000074,
            "endTime": 27.262
        },
        {
            "note": "64",
            "velocity": 127,
            "pitch": 64,
            "type": "Note on",
            "startTime": 27.832,
            "duration": 0.07499999999999929,
            "endTime": 27.907
        },
        {
            "note": "62",
            "velocity": 123,
            "pitch": 62,
            "type": "Note on",
            "startTime": 28.477,
            "duration": 0.09499999999999886,
            "endTime": 28.572
        },
        {
            "note": "62",
            "velocity": 121,
            "pitch": 62,
            "type": "Note on",
            "startTime": 29.129,
            "duration": 0.08699999999999974,
            "endTime": 29.216
        },
        {
            "note": "60",
            "velocity": 127,
            "pitch": 60,
            "type": "Note on",
            "startTime": 29.749,
            "duration": 0.8990000000000009,
            "endTime": 30.648
        }
    ]
}

